<svg width="24" height="24" viewBox="0 0 24 24" fill="none" xmlns="http://www.w3.org/2000/svg">
<path fill-rule="evenodd" clip-rule="evenodd" d="M17.9672 3.31086C18.0075 3.12925 18.1686 3 18.3546 3H21.1822V3.79353H18.673L16.2027 14.9333C16.1624 15.1149 16.0013 15.2441 15.8153 15.2441H4.80645C4.62682 15.2441 4.46961 15.1235 4.42317 14.9499L2.0135 5.94873C1.9816 5.82959 2.00693 5.70239 2.08202 5.60455C2.15711 5.50671 2.27343 5.44935 2.39677 5.44935H15.773V6.24288H2.91373L4.64747 12.7186L5.11099 14.4506H15.4969L17.9672 3.31086Z" fill="black"/>
<path fill-rule="evenodd" clip-rule="evenodd" d="M7.37179 17.085C6.78599 17.085 6.31111 17.5599 6.31111 18.1457C6.31111 18.7315 6.78599 19.2064 7.37179 19.2064C7.95758 19.2064 8.43247 18.7315 8.43247 18.1457C8.43247 17.5599 7.95759 17.085 7.37179 17.085ZM5.51758 18.1457C5.51758 17.1217 6.34774 16.2915 7.37179 16.2915C8.39584 16.2915 9.226 17.1217 9.226 18.1457C9.226 19.1698 8.39584 19.9999 7.37179 19.9999C6.34774 19.9999 5.51758 19.1698 5.51758 18.1457Z" fill="black"/>
<path fill-rule="evenodd" clip-rule="evenodd" d="M13.5857 17.085C12.9999 17.085 12.525 17.5599 12.525 18.1457C12.525 18.7315 12.9999 19.2064 13.5857 19.2064C14.1715 19.2064 14.6463 18.7315 14.6463 18.1457C14.6463 17.5599 14.1715 17.085 13.5857 17.085ZM11.7314 18.1457C11.7314 17.1217 12.5616 16.2915 13.5857 16.2915C14.6097 16.2915 15.4399 17.1217 15.4399 18.1457C15.4399 19.1698 14.6097 19.9999 13.5857 19.9999C12.5616 19.9999 11.7314 19.1698 11.7314 18.1457Z" fill="black"/>
</svg>
