<svg width="23" height="22" viewBox="0 0 23 22" fill="none" xmlns="http://www.w3.org/2000/svg">
<path d="M13.7817 18.5508C11.1311 18.5508 8.97623 16.396 8.97623 13.7454C8.97623 11.0948 11.1311 8.93992 13.7817 8.93992C16.4323 8.93992 18.5871 11.0948 18.5871 13.7454C18.5871 16.396 16.4323 18.5508 13.7817 18.5508ZM13.7817 9.93141C11.6797 9.93141 9.96772 11.6434 9.96772 13.7454C9.96772 15.8473 11.6797 17.5593 13.7817 17.5593C15.8836 17.5593 17.5956 15.8473 17.5956 13.7454C17.5956 11.6434 15.8836 9.93141 13.7817 9.93141Z" fill="currentColor"/>
<path d="M18.1028 17.3611L17.4017 18.0622L21.3395 22L22.0406 21.2989L18.1028 17.3611Z" fill="currentColor"/>
<path d="M20.8214 17.8337H19.8299V0.991493H2.96787V0H20.3256C20.6 0 20.8214 0.221434 20.8214 0.495748V17.8337Z" fill="currentColor"/>
<path d="M17.8469 20.8214H0.495748C0.221434 20.8214 0 20.6 0 20.3257V0.0132328H0.991495V19.8299H17.8469V20.8214Z" fill="currentColor"/>
<path d="M14.8889 2.96448H2.96787V3.95598H14.8889V2.96448Z" fill="currentColor"/>
<path d="M14.8889 5.94542H2.96787V6.93692H14.8889V5.94542Z" fill="currentColor"/>
<path d="M8.93006 8.92669H2.96787V9.91818H8.93006V8.92669Z" fill="currentColor"/>
</svg>
