<svg width="48" height="48" viewBox="0 0 48 48" fill="none" xmlns="http://www.w3.org/2000/svg">
<g id="Frame 368" clip-path="url(#clip0_984_36967)">
<g id="Group 367">
<path id="Vector (Stroke)" fill-rule="evenodd" clip-rule="evenodd" d="M12.7947 33.2371V12.7305H11.1947V34.0371C11.1947 34.479 11.5528 34.8371 11.9947 34.8371H30.832V33.2371H12.7947Z" fill="currentColor"/>
<path id="Vector" d="M22.528 38.4588C24.5162 38.4588 26.128 36.847 26.128 34.8588C26.128 32.8706 24.5162 31.2588 22.528 31.2588C20.5398 31.2588 18.928 32.8706 18.928 34.8588C18.928 36.847 20.5398 38.4588 22.528 38.4588Z" fill="currentColor"/>
<path id="Vector (Stroke)_2" fill-rule="evenodd" clip-rule="evenodd" d="M22.528 32.0585C20.9816 32.0585 19.728 33.3121 19.728 34.8585C19.728 36.4049 20.9816 37.6585 22.528 37.6585C24.0744 37.6585 25.328 36.4049 25.328 34.8585C25.328 33.3121 24.0744 32.0585 22.528 32.0585ZM18.128 34.8585C18.128 32.4284 20.0979 30.4585 22.528 30.4585C24.958 30.4585 26.928 32.4284 26.928 34.8585C26.928 37.2885 24.958 39.2585 22.528 39.2585C20.0979 39.2585 18.128 37.2885 18.128 34.8585Z" fill="currentColor"/>
<path id="Vector (Stroke)_3" fill-rule="evenodd" clip-rule="evenodd" d="M14.6187 11.9307H33.52C33.9618 11.9307 34.32 12.2888 34.32 12.7307V19.6533H41.4453C43.0503 19.6533 44.6008 20.2288 45.8179 21.2763C47.2963 22.5487 48.144 24.4023 48.144 26.352V34.5653C48.144 35.0072 47.7858 35.3653 47.344 35.3653H33.52C33.0782 35.3653 32.72 35.0072 32.72 34.5653V13.5307H14.6187V11.9307ZM34.32 21.2533V33.7653H46.544V26.352C46.544 24.867 45.8984 23.4566 44.7741 22.489L44.7741 22.489C43.8472 21.6912 42.667 21.2533 41.4453 21.2533H34.32Z" fill="currentColor"/>
<path id="Vector_2" d="M40.832 38.4588C42.8202 38.4588 44.432 36.847 44.432 34.8588C44.432 32.8706 42.8202 31.2588 40.832 31.2588C38.8438 31.2588 37.232 32.8706 37.232 34.8588C37.232 36.847 38.8438 38.4588 40.832 38.4588Z" fill="currentColor"/>
<path id="Vector (Stroke)_4" fill-rule="evenodd" clip-rule="evenodd" d="M40.832 32.0585C39.2856 32.0585 38.032 33.3121 38.032 34.8585C38.032 36.4049 39.2856 37.6585 40.832 37.6585C42.3784 37.6585 43.632 36.4049 43.632 34.8585C43.632 33.3121 42.3784 32.0585 40.832 32.0585ZM36.432 34.8585C36.432 32.4284 38.4019 30.4585 40.832 30.4585C43.2621 30.4585 45.232 32.4284 45.232 34.8585C45.232 37.2885 43.2621 39.2585 40.832 39.2585C38.4019 39.2585 36.432 37.2885 36.432 34.8585Z" fill="currentColor"/>
<path id="Vector (Stroke)_5" fill-rule="evenodd" clip-rule="evenodd" d="M21.728 31.2585V12.7305H23.328V31.2585H21.728Z" fill="currentColor"/>
<path id="Vector (Stroke)_6" fill-rule="evenodd" clip-rule="evenodd" d="M33.52 24.4481H11.9947V22.8481H33.52V24.4481Z" fill="currentColor"/>
<path id="Vector (Stroke)_7" fill-rule="evenodd" clip-rule="evenodd" d="M25.1581 9.60368L23.0461 11.9343C22.8911 12.1055 22.6697 12.2012 22.4388 12.197C22.2079 12.1928 21.9901 12.0891 21.8414 11.9125L19.8787 9.5818L21.1026 8.55118L22.4754 10.1814L23.9725 8.5293L25.1581 9.60368Z" fill="currentColor"/>
<path id="Vector (Stroke)_8" fill-rule="evenodd" clip-rule="evenodd" d="M11.9947 28.6718H4.57601V27.0718H11.9947V28.6718Z" fill="currentColor"/>
<path id="Vector (Stroke)_9" fill-rule="evenodd" clip-rule="evenodd" d="M11.9947 32.3998H1.06667V30.7998H11.9947V32.3998Z" fill="currentColor"/>
</g>
</g>
<defs>
<clipPath id="clip0_984_36967">
<rect width="48" height="48" fill="currentColor"/>
</clipPath>
</defs>
</svg>
