<svg width="24" height="24" viewBox="0 0 24 24" fill="none" xmlns="http://www.w3.org/2000/svg">
<path fill-rule="evenodd" clip-rule="evenodd" d="M5.37291 9.20848C5.37291 5.77908 8.15198 3 11.5814 3C15.0108 3 17.7899 5.77908 17.7899 9.20848V14.1587H16.9621V9.20848C16.9621 6.23625 14.5536 3.8278 11.5814 3.8278C8.60916 3.8278 6.20071 6.23625 6.20071 9.20848V14.2222H5.37291V9.20848Z" fill="black"/>
<path fill-rule="evenodd" clip-rule="evenodd" d="M9.56713 17.1607C9.56713 18.2731 10.4662 19.1722 11.5787 19.1722C12.6908 19.1722 13.5902 18.2706 13.5902 17.1607H14.418C14.418 18.7272 13.1486 20 11.5787 20C10.0091 20 8.73934 18.7303 8.73934 17.1607H9.56713Z" fill="black"/>
<path fill-rule="evenodd" clip-rule="evenodd" d="M20.163 16.2558H3V15.428H20.163V16.2558Z" fill="black"/>
</svg>
