<svg width="21" height="21" viewBox="0 0 21 21" fill="none" xmlns="http://www.w3.org/2000/svg">
<g clip-path="url(#clip0_761_36783)">
<path fill-rule="evenodd" clip-rule="evenodd" d="M10.5 0.928382C5.21374 0.928382 0.928382 5.21374 0.928382 10.5C0.928382 15.7863 5.21374 20.0716 10.5 20.0716C15.7863 20.0716 20.0716 15.7863 20.0716 10.5C20.0716 5.21374 15.7863 0.928382 10.5 0.928382ZM0 10.5C0 4.70101 4.70101 0 10.5 0C16.299 0 21 4.70101 21 10.5C21 16.299 16.299 21 10.5 21C4.70101 21 0 16.299 0 10.5Z" fill="#666666"/>
<path fill-rule="evenodd" clip-rule="evenodd" d="M9.6582 5.40625H12.0256C13.7191 5.40625 15.2285 6.58077 15.2285 8.18521C15.2285 9.78965 13.7191 10.9642 12.0256 10.9642H9.68605V10.0358H12.0256C13.3586 10.0358 14.3001 9.13691 14.3001 8.18521C14.3001 7.2335 13.3586 6.33463 12.0256 6.33463H9.6582V5.40625Z" fill="#666666"/>
<path fill-rule="evenodd" clip-rule="evenodd" d="M8.6525 5.40039V16.5255H7.72412V5.40039H8.6525Z" fill="#666666"/>
</g>
<defs>
<clipPath id="clip0_761_36783">
<rect width="21" height="21" fill="white"/>
</clipPath>
</defs>
</svg>
