<svg width="24" height="22" viewBox="0 0 24 22" fill="none" xmlns="http://www.w3.org/2000/svg">
<path fill-rule="evenodd" clip-rule="evenodd" d="M19.9776 0.388941C20.028 0.16171 20.2295 0 20.4622 0H24V0.992829H20.8606L17.7698 14.9304C17.7194 15.1576 17.5179 15.3194 17.2852 15.3194H3.51131C3.28658 15.3194 3.08987 15.1684 3.03177 14.9513L0.0168929 3.68933C-0.0230154 3.54027 0.00866604 3.38112 0.102618 3.25871C0.19657 3.1363 0.342107 3.06453 0.496419 3.06453H17.2322V4.05736H1.14322L3.3124 12.1595L3.89234 14.3265H16.8868L19.9776 0.388941Z" fill="black"/>
<path fill-rule="evenodd" clip-rule="evenodd" d="M6.72128 17.6227C5.98835 17.6227 5.3942 18.2169 5.3942 18.9498C5.3942 19.6827 5.98835 20.2769 6.72128 20.2769C7.45421 20.2769 8.04836 19.6827 8.04836 18.9498C8.04836 18.2169 7.45421 17.6227 6.72128 17.6227ZM4.40137 18.9498C4.40137 17.6685 5.44003 16.6299 6.72128 16.6299C8.00253 16.6299 9.04119 17.6685 9.04119 18.9498C9.04119 20.231 8.00253 21.2697 6.72128 21.2697C5.44003 21.2697 4.40137 20.231 4.40137 18.9498Z" fill="black"/>
<path fill-rule="evenodd" clip-rule="evenodd" d="M14.4952 17.6227C13.7623 17.6227 13.1681 18.2169 13.1681 18.9498C13.1681 19.6827 13.7623 20.2769 14.4952 20.2769C15.2281 20.2769 15.8223 19.6827 15.8223 18.9498C15.8223 18.2169 15.2281 17.6227 14.4952 17.6227ZM12.1753 18.9498C12.1753 17.6685 13.214 16.6299 14.4952 16.6299C15.7765 16.6299 16.8151 17.6685 16.8151 18.9498C16.8151 20.231 15.7765 21.2697 14.4952 21.2697C13.214 21.2697 12.1753 20.231 12.1753 18.9498Z" fill="black"/>
</svg>
