<svg width="24" height="15" viewBox="0 0 24 15" fill="none" xmlns="http://www.w3.org/2000/svg">
<g clip-path="url(#clip0_761_36779)">
<path fill-rule="evenodd" clip-rule="evenodd" d="M23.9873 5.14817C22.6923 5.14817 21.6457 6.19477 21.6457 7.4897C21.6457 8.78428 22.6952 9.83125 23.9873 9.83125V10.7948C22.1637 10.7948 20.6821 9.31718 20.6821 7.4897C20.6821 5.66258 22.1602 4.18457 23.9873 4.18457V5.14817Z" fill="#666666"/>
<path fill-rule="evenodd" clip-rule="evenodd" d="M0 0.481799C0 0.215709 0.215709 0 0.481799 0H23.5182C23.7843 0 24 0.215709 24 0.481799V3.25696H23.0364V0.963597H0.963597V13.6349H23.0364V11.9486H24V14.1167C24 14.3828 23.7843 14.5985 23.5182 14.5985H0.481799C0.215709 14.5985 0 14.3828 0 14.1167V0.481799Z" fill="#666666"/>
<path fill-rule="evenodd" clip-rule="evenodd" d="M16.802 11.6241V3.21191H17.7656V11.6241H16.802Z" fill="#666666"/>
</g>
<defs>
<clipPath id="clip0_761_36779">
<rect width="24" height="15" fill="white"/>
</clipPath>
</defs>
</svg>
