<svg width="21" height="18" viewBox="0 0 21 18" fill="none" xmlns="http://www.w3.org/2000/svg">
<g id="Group 331">
<path id="Vector (Stroke)" fill-rule="evenodd" clip-rule="evenodd" d="M20.1703 18.0002H4.75049V16.9653H20.1703V18.0002Z" fill="#999999"/>
<path id="Vector (Stroke)_2" fill-rule="evenodd" clip-rule="evenodd" d="M3.12536 18.0002H0V16.9653H3.12536V18.0002Z" fill="#999999"/>
<path id="Vector (Stroke)_3" fill-rule="evenodd" clip-rule="evenodd" d="M13.7778 0.151556C13.9798 -0.0505185 14.3075 -0.0505186 14.5095 0.151556L17.7591 3.4011C17.8561 3.49814 17.9106 3.62975 17.9106 3.76699C17.9106 3.90422 17.8561 4.03584 17.7591 4.13288L8.37265 13.5193C8.29611 13.5958 8.19749 13.6465 8.09067 13.664L3.93387 14.347C3.76362 14.375 3.59063 14.3163 3.47259 14.1905C3.35455 14.0646 3.30699 13.8882 3.34577 13.7201L4.25302 9.78755C4.27483 9.69304 4.32275 9.60657 4.39133 9.53798L13.7778 0.151556ZM14.1436 1.24922L5.22806 10.1648L4.52767 13.2007L7.7586 12.6698L16.6614 3.76699L14.1436 1.24922Z" fill="#999999"/>
</g>
</svg>
