<svg width="22" height="24" viewBox="0 0 22 24" fill="none" xmlns="http://www.w3.org/2000/svg">
<path d="M21.6035 24H20.5989V10.2133L11.2124 1.19176L1.40062 10.22V22.9217H18.5595V23.9263H0.898307C0.620361 23.9263 0.395996 23.702 0.395996 23.424V9.99893C0.395996 9.85829 0.456273 9.72434 0.556735 9.63057L10.8809 0.133557C11.0751 -0.047275 11.3765 -0.0439262 11.5707 0.140254L21.4495 9.63727C21.5466 9.73104 21.6035 9.86164 21.6035 9.99893V24Z" fill="currentColor"/>
<path d="M7.42834 23.6584H6.42372V13.5653C6.42372 13.2874 6.64809 13.063 6.92603 13.063H14.9094C15.1874 13.063 15.4117 13.2874 15.4117 13.5653V23.4207H14.4071V14.0677H7.42834V23.6584Z" fill="currentColor"/>
</svg>
