<svg width="48" height="48" viewBox="0 0 48 48" fill="none" xmlns="http://www.w3.org/2000/svg">
<g id="Frame 369">
<g id="Group 368">
<path id="Vector (Stroke)" fill-rule="evenodd" clip-rule="evenodd" d="M7.2 31.7117V11.2051H5.6V32.5117C5.6 32.9536 5.95817 33.3117 6.4 33.3117H25.232V31.7117H7.2Z" fill="currentColor"/>
<path id="Vector" d="M15.6907 36.9334C17.6789 36.9334 19.2907 35.3216 19.2907 33.3334C19.2907 31.3452 17.6789 29.7334 15.6907 29.7334C13.7024 29.7334 12.0907 31.3452 12.0907 33.3334C12.0907 35.3216 13.7024 36.9334 15.6907 36.9334Z" fill="currentColor"/>
<path id="Vector (Stroke)_2" fill-rule="evenodd" clip-rule="evenodd" d="M15.6907 30.5331C14.1443 30.5331 12.8907 31.7867 12.8907 33.3331C12.8907 34.8795 14.1443 36.1331 15.6907 36.1331C17.2371 36.1331 18.4907 34.8795 18.4907 33.3331C18.4907 31.7867 17.2371 30.5331 15.6907 30.5331ZM11.2907 33.3331C11.2907 30.9031 13.2606 28.9331 15.6907 28.9331C18.1207 28.9331 20.0907 30.9031 20.0907 33.3331C20.0907 35.7632 18.1207 37.7331 15.6907 37.7331C13.2606 37.7331 11.2907 35.7632 11.2907 33.3331Z" fill="currentColor"/>
<path id="Vector (Stroke)_3" fill-rule="evenodd" clip-rule="evenodd" d="M9.02399 10.3999H27.9253C28.3672 10.3999 28.7253 10.7581 28.7253 11.1999V18.1279H35.8507C37.4556 18.1279 39.0061 18.7033 40.2232 19.7509C41.7016 21.0233 42.5493 22.8769 42.5493 24.8266V33.0399C42.5493 33.4817 42.1912 33.8399 41.7493 33.8399H27.9253C27.4835 33.8399 27.1253 33.4817 27.1253 33.0399V11.9999H9.02399V10.3999ZM28.7253 19.7279V32.2399H40.9493V24.8266C40.9493 23.3416 40.3037 21.9312 39.1795 20.9636L39.1794 20.9636C38.2526 20.1658 37.0724 19.7279 35.8507 19.7279H28.7253Z" fill="currentColor"/>
<path id="Vector_2" d="M35.232 36.9334C37.2202 36.9334 38.832 35.3216 38.832 33.3334C38.832 31.3452 37.2202 29.7334 35.232 29.7334C33.2438 29.7334 31.632 31.3452 31.632 33.3334C31.632 35.3216 33.2438 36.9334 35.232 36.9334Z" fill="currentColor"/>
<path id="Vector (Stroke)_4" fill-rule="evenodd" clip-rule="evenodd" d="M35.232 30.5331C33.6856 30.5331 32.432 31.7867 32.432 33.3331C32.432 34.8795 33.6856 36.1331 35.232 36.1331C36.7784 36.1331 38.032 34.8795 38.032 33.3331C38.032 31.7867 36.7784 30.5331 35.232 30.5331ZM30.832 33.3331C30.832 30.9031 32.8019 28.9331 35.232 28.9331C37.6621 28.9331 39.632 30.9031 39.632 33.3331C39.632 35.7632 37.6621 37.7331 35.232 37.7331C32.8019 37.7331 30.832 35.7632 30.832 33.3331Z" fill="currentColor"/>
</g>
</g>
</svg>
