<svg width="20" height="20" viewBox="0 0 20 20" fill="none" xmlns="http://www.w3.org/2000/svg">
<path fill-rule="evenodd" clip-rule="evenodd" d="M2.76515 7.23473C2.76515 3.23845 6.00359 0 9.99987 0C13.9962 0 17.2346 3.23845 17.2346 7.23473V13.0032H16.27V7.23473C16.27 3.7712 13.4634 0.96463 9.99987 0.96463C6.53635 0.96463 3.72978 3.7712 3.72978 7.23473V13.0772H2.76515V7.23473Z" fill="black"/>
<path fill-rule="evenodd" clip-rule="evenodd" d="M7.65267 16.5014C7.65267 17.7977 8.70039 18.8454 9.99672 18.8454C11.2927 18.8454 12.3408 17.7949 12.3408 16.5014H13.3054C13.3054 18.3269 11.8262 19.8101 9.99672 19.8101C8.16764 19.8101 6.68804 18.3305 6.68804 16.5014H7.65267Z" fill="black"/>
<path fill-rule="evenodd" clip-rule="evenodd" d="M20 15.447H0V14.4823H20V15.447Z" fill="black"/>
</svg>
