<svg width="15" height="18" viewBox="0 0 15 18" fill="none" xmlns="http://www.w3.org/2000/svg">
<path fill-rule="evenodd" clip-rule="evenodd" d="M14.0984 4.04594H2.10033V3.28593H14.4784C14.6883 3.28593 14.8585 3.45606 14.8585 3.66593V17.9694H14.0984V4.04594Z" fill="black"/>
<path fill-rule="evenodd" clip-rule="evenodd" d="M0.760015 17.2401V3.66621H0V17.6201C0 17.83 0.170135 18.0001 0.380008 18.0001H12.7176V17.2401H0.760015Z" fill="black"/>
<path fill-rule="evenodd" clip-rule="evenodd" d="M7.05041 3.79453L4.50387 0.461407L5.10779 0L7.73238 3.43527C7.783 3.50153 7.81042 3.58259 7.81042 3.66597V17.6199H7.05041V3.79453Z" fill="black"/>
<path fill-rule="evenodd" clip-rule="evenodd" d="M7.12837 3.43527L9.75043 0L10.3546 0.461126L7.73252 3.89639L7.12837 3.43527Z" fill="black"/>
<path fill-rule="evenodd" clip-rule="evenodd" d="M14.4783 10.5598H0.380005V9.7998H14.4783V10.5598Z" fill="black"/>
</svg>
