<svg width="22" height="20" viewBox="0 0 22 20" fill="none" xmlns="http://www.w3.org/2000/svg">
<path fill-rule="evenodd" clip-rule="evenodd" d="M22.0003 19.6327H5.1814V18.5039H22.0003V19.6327Z" fill="#666666"/>
<path fill-rule="evenodd" clip-rule="evenodd" d="M3.40893 19.6327H0V18.5039H3.40893V19.6327Z" fill="#666666"/>
<path fill-rule="evenodd" clip-rule="evenodd" d="M15.0277 0.165307C15.2481 -0.0551021 15.6055 -0.0551022 15.8259 0.165306L19.3703 3.70969C19.4761 3.81553 19.5356 3.95909 19.5356 4.10877C19.5356 4.25846 19.4761 4.40201 19.3703 4.50786L9.1322 14.7459C9.04871 14.8294 8.94114 14.8846 8.82463 14.9038L4.29068 15.6488C4.10498 15.6793 3.91629 15.6152 3.78754 15.478C3.65879 15.3407 3.60692 15.1483 3.64922 14.965L4.63879 10.6756C4.66257 10.5725 4.71484 10.4782 4.78965 10.4034L15.0277 0.165307ZM15.4268 1.36256L5.70229 11.0871L4.93836 14.3984L8.46243 13.8194L18.173 4.10877L15.4268 1.36256Z" fill="#666666"/>
</svg>
