<svg width="20" height="19" viewBox="0 0 20 19" fill="none" xmlns="http://www.w3.org/2000/svg">
<mask id="path-1-inside-1_782_36735" fill="white">
<path fill-rule="evenodd" clip-rule="evenodd" d="M9.43618 2.35756C7.27752 0.21024 3.77765 0.21024 1.61899 2.35756C-0.539664 4.50488 -0.539665 7.98638 1.61899 10.1337L9.95962 18.4305L9.96647 18.4237L9.97273 18.4299L18.4291 10.018C20.5238 7.93424 20.5238 4.55585 18.4291 2.47212C16.3344 0.388394 12.9382 0.388395 10.8434 2.47212L10.1974 3.11478L9.43618 2.35756Z"/>
</mask>
<path d="M1.61899 2.35756L2.32424 3.06653L1.61899 2.35756ZM9.43618 2.35756L10.1414 1.6486V1.6486L9.43618 2.35756ZM1.61899 10.1337L0.913749 10.8427H0.913749L1.61899 10.1337ZM9.95962 18.4305L9.25438 19.1395L9.95965 19.8411L10.6649 19.1395L9.95962 18.4305ZM9.96647 18.4237L10.6717 17.7148L9.96646 17.0132L9.26119 17.7148L9.96647 18.4237ZM9.97273 18.4299L9.26746 19.1389L9.9727 19.8405L10.678 19.1389L9.97273 18.4299ZM18.4291 10.018L17.7239 9.309L18.4291 10.018ZM18.4291 2.47212L17.7239 3.18109V3.18109L18.4291 2.47212ZM10.8434 2.47212L11.5487 3.18109L11.5487 3.18109L10.8434 2.47212ZM10.1974 3.11478L9.49215 3.82374L10.1974 4.52528L10.9026 3.82374L10.1974 3.11478ZM2.32424 3.06653C4.0928 1.30725 6.96238 1.30725 8.73094 3.06653L10.1414 1.6486C7.59267 -0.886772 3.4625 -0.886771 0.913749 1.6486L2.32424 3.06653ZM2.32423 9.42474C0.558588 7.66836 0.558589 4.8229 2.32424 3.06653L0.913749 1.6486C-1.63792 4.18686 -1.63792 8.3044 0.913749 10.8427L2.32423 9.42474ZM10.6649 17.7216L2.32423 9.42474L0.913749 10.8427L9.25438 19.1395L10.6649 17.7216ZM9.26119 17.7148L9.25434 17.7216L10.6649 19.1395L10.6717 19.1327L9.26119 17.7148ZM9.2612 19.1327L9.26746 19.1389L10.678 17.721L10.6717 17.7148L9.2612 19.1327ZM10.678 19.1389L19.1344 10.7269L17.7239 9.309L9.26748 17.721L10.678 19.1389ZM19.1344 10.7269C21.6221 8.25226 21.6221 4.23783 19.1344 1.76316L17.7239 3.18109C19.4256 4.87387 19.4256 7.61622 17.7239 9.309L19.1344 10.7269ZM19.1344 1.76316C16.6495 -0.708618 12.623 -0.708616 10.1382 1.76316L11.5487 3.18109C13.2533 1.48541 16.0192 1.48541 17.7239 3.18109L19.1344 1.76316ZM10.1382 1.76316L9.49215 2.40581L10.9026 3.82374L11.5487 3.18109L10.1382 1.76316ZM8.73094 3.06653L9.49215 3.82374L10.9026 2.40581L10.1414 1.6486L8.73094 3.06653Z" fill="#FAFAFA" mask="url(#path-1-inside-1_782_36735)"/>
</svg>
