<svg width="21" height="18" viewBox="0 0 21 18" fill="none" xmlns="http://www.w3.org/2000/svg">
<mask id="path-1-inside-1_752_36714" fill="white">
<path fill-rule="evenodd" clip-rule="evenodd" d="M9.56765 1.63293C7.37892 -0.54431 3.83028 -0.54431 1.64155 1.63293C-0.547183 3.81017 -0.547183 7.34018 1.64155 9.51742L10.0984 17.9298L10.1051 17.9231L10.1115 17.9295L18.6857 9.4003C20.8096 7.28755 20.8096 3.86209 18.6857 1.74933C16.5618 -0.363429 13.1183 -0.36343 10.9944 1.74933L10.3395 2.40074L9.56765 1.63293Z"/>
</mask>
<path fill-rule="evenodd" clip-rule="evenodd" d="M9.56765 1.63293C7.37892 -0.54431 3.83028 -0.54431 1.64155 1.63293C-0.547183 3.81017 -0.547183 7.34018 1.64155 9.51742L10.0984 17.9298L10.1051 17.9231L10.1115 17.9295L18.6857 9.4003C20.8096 7.28755 20.8096 3.86209 18.6857 1.74933C16.5618 -0.363429 13.1183 -0.36343 10.9944 1.74933L10.3395 2.40074L9.56765 1.63293Z" fill="white"/>
<path d="M1.64155 1.63293L1.28893 1.27845L1.64155 1.63293ZM9.56765 1.63293L9.92027 1.27845L9.56765 1.63293ZM1.64155 9.51742L1.28893 9.8719L1.64155 9.51742ZM10.0984 17.9298L9.74576 18.2843L10.0984 18.6351L10.451 18.2843L10.0984 17.9298ZM10.1051 17.9231L10.4578 17.5687L10.1051 17.2179L9.7525 17.5687L10.1051 17.9231ZM10.1115 17.9295L9.75889 18.284L10.1115 18.6347L10.4641 18.284L10.1115 17.9295ZM18.6857 9.4003L18.3331 9.04582L18.6857 9.4003ZM18.6857 1.74933L19.0383 1.39485V1.39485L18.6857 1.74933ZM10.9944 1.74933L11.347 2.10381L10.9944 1.74933ZM10.3395 2.40074L9.98689 2.75522L10.3395 3.10599L10.6921 2.75522L10.3395 2.40074ZM1.99417 1.98741C3.98786 0.00419584 7.22134 0.00419564 9.21503 1.98741L9.92027 1.27845C7.53649 -1.09282 3.67271 -1.09282 1.28893 1.27845L1.99417 1.98741ZM1.99417 9.16293C0.00194293 7.18117 0.00194293 3.96918 1.99417 1.98741L1.28893 1.27845C-1.09631 3.65116 -1.09631 7.49919 1.28893 9.8719L1.99417 9.16293ZM10.451 17.5754L1.99417 9.16293L1.28893 9.8719L9.74576 18.2843L10.451 17.5754ZM9.7525 17.5687L9.74576 17.5754L10.451 18.2843L10.4578 18.2776L9.7525 17.5687ZM9.7525 18.2776L9.75889 18.284L10.4641 17.575L10.4578 17.5687L9.7525 18.2776ZM10.4641 18.284L19.0383 9.75479L18.3331 9.04582L9.7589 17.575L10.4641 18.284ZM19.0383 9.75479C21.3588 7.44656 21.3588 3.70308 19.0383 1.39485L18.3331 2.10381C20.2605 4.0211 20.2605 7.12854 18.3331 9.04582L19.0383 9.75479ZM19.0383 1.39485C16.7194 -0.911935 12.9607 -0.911936 10.6417 1.39485L11.347 2.10381C13.2758 0.185076 16.4042 0.185076 18.3331 2.10381L19.0383 1.39485ZM10.6417 1.39485L9.98689 2.04626L10.6921 2.75522L11.347 2.10381L10.6417 1.39485ZM9.21503 1.98741L9.98689 2.75522L10.6921 2.04626L9.92027 1.27845L9.21503 1.98741Z" fill="#999999" mask="url(#path-1-inside-1_752_36714)"/>
</svg>
