<svg width="23" height="20" viewBox="0 0 23 20" fill="none" xmlns="http://www.w3.org/2000/svg">
<path d="M11.0603 19.9969C10.9311 19.9969 10.8051 19.9433 10.7169 19.8488L1.68899 10.323C0.598708 9.13818 0 7.62565 0 6.05956C0 5.06066 0.239483 4.06807 0.693241 3.19206C0.961084 2.67528 1.2951 2.20577 1.69214 1.79297C2.10493 1.36758 2.56184 1.0115 3.05026 0.731056C3.8979 0.245788 4.81172 0 5.76335 0C7.28848 0 8.77265 0.655435 9.84087 1.79928C10.3608 2.36333 10.7673 3.003 11.054 3.68678C11.3408 2.98409 11.7567 2.33812 12.2798 1.79613C13.4079 0.639676 14.8511 0.00315417 16.3542 0.00315417C17.8793 0.00315417 19.3635 0.658579 20.4317 1.80243C21.522 2.98409 22.1207 4.49662 22.1207 6.06271C22.1207 7.65402 21.5031 9.21065 20.4254 10.3293L13.8932 17.142L13.2094 16.4865L19.7448 9.67387C20.6554 8.72854 21.1754 7.41138 21.1754 6.06271C21.1754 4.73295 20.6649 3.45045 19.7385 2.44525C18.853 1.49677 17.6178 0.948483 16.3542 0.948483C15.1095 0.948483 13.9058 1.48417 12.9605 2.45471C12.0561 3.39688 11.533 4.71089 11.533 6.05956V6.06586C11.533 6.3274 11.3219 6.53852 11.0603 6.53852C10.7988 6.53852 10.5877 6.3274 10.5877 6.06586C10.5877 4.7361 10.0772 3.45361 9.15078 2.44841C8.26532 1.49993 7.03009 0.951637 5.7665 0.951637C4.98188 0.951637 4.22562 1.15646 3.52292 1.5598C3.11013 1.79613 2.72255 2.09863 2.37277 2.45786C2.04191 2.80133 1.75831 3.19836 1.53143 3.63321C1.147 4.37687 0.942177 5.21821 0.942177 6.06586C0.942177 7.39562 1.45265 8.67812 2.37908 9.68332L11.0572 18.8404L12.1538 17.6745L12.8439 18.3205L11.4038 19.8519C11.3156 19.9464 11.1895 20 11.0603 20V19.9969Z" fill="currentColor"/>
</svg>
