<svg width="20" height="22" viewBox="0 0 20 22" fill="none" xmlns="http://www.w3.org/2000/svg">
<path d="M9.80826 8.93276C7.34468 8.93276 5.34188 6.92995 5.34188 4.46638C5.34188 2.00281 7.34468 0 9.80826 0C12.2718 0 14.2746 2.00281 14.2746 4.46638C14.2746 6.92995 12.2718 8.93276 9.80826 8.93276ZM9.80826 0.921536C7.8546 0.921536 6.26341 2.51272 6.26341 4.46638C6.26341 6.42004 7.8546 8.01122 9.80826 8.01122C11.7619 8.01122 13.3531 6.42004 13.3531 4.46638C13.3531 2.51272 11.7619 0.921536 9.80826 0.921536Z" fill="currentColor"/>
<path d="M16.5539 22H0.460768C0.20581 22 0 21.7942 0 21.5392V10.9231H0.921536V21.0785H16.5539V22Z" fill="currentColor"/>
<path d="M19.2969 21.9937H18.3753V11.8753H2.76146V10.9537H18.8361C19.0911 10.9537 19.2969 11.1595 19.2969 11.4145V21.9937Z" fill="currentColor"/>
</svg>
